<svg xmlns="http://www.w3.org/2000/svg" viewBox="0 0 512 512">
  <defs>
    <linearGradient id="textGrad" x1="0%" y1="0%" x2="100%" y2="0%">
      <stop offset="0%" stop-color="#9C27B0" />
      <stop offset="100%" stop-color="#3F51B5" />
    </linearGradient>
  </defs>
  
  <g>
    <path d="M 256 256 L 256 0 A 256 256 0 0 1 437.019 74.981 Z" fill="#E53935" />
    <path d="M 256 256 L 437.019 74.981 A 256 256 0 0 1 512 256 Z" fill="#FB8C00" />
    <path d="M 256 256 L 512 256 A 256 256 0 0 1 437.019 437.019 Z" fill="#FDD835" />
    <path d="M 256 256 L 437.019 437.019 A 256 256 0 0 1 256 512 Z" fill="#7CB342" />
    <path d="M 256 256 L 256 512 A 256 256 0 0 1 74.981 437.019 Z" fill="#03A9F4" />
    <path d="M 256 256 L 74.981 437.019 A 256 256 0 0 1 0 256 Z" fill="#1E88E5" />
    <path d="M 256 256 L 0 256 A 256 256 0 0 1 74.981 74.981 Z" fill="#5E35B1" />
    <path d="M 256 256 L 74.981 74.981 A 256 256 0 0 1 256 0 Z" fill="#8E24AA" />
  </g>

  <ellipse cx="256" cy="256" rx="240" ry="80" fill="white" />

  <text x="256" y="287" font-family="system-ui, -apple-system, sans-serif" font-size="88" font-weight="900" text-anchor="middle" fill="url(#textGrad)" letter-spacing="-2">MovizNow</text>
</svg>
